HIERARCHY
ROOT Hips
{
  OFFSET 0.0 0.0 0.0
  CHANNELS 6 XPOSITION YPOSITION ZPOSITION ZROTATION XROTATION YROTATION 
  JOINT RightUpLeg
  {
    OFFSET -0.089458 -0.0866707 0.00101652
    CHANNELS 3 ZROTATION XROTATION YROTATION 
    JOINT RightLeg
    {
      OFFSET 0.0 -0.444227 0.013727
      CHANNELS 3 ZROTATION XROTATION YROTATION 
      JOINT RightFoot
      {
        OFFSET 0.00253549 -0.420924 -0.0146059
        CHANNELS 3 ZROTATION XROTATION YROTATION 
        JOINT RightToes
        {
          OFFSET 0.0004 -0.0441509 0.084991
          CHANNELS 3 ZROTATION XROTATION YROTATION 
          End Site
          {
            OFFSET -0.0008 -0.00137448 0.0977979
          }
        }
      }
    }
  }
  JOINT Spine
  {
    OFFSET 0.0 0.118905 0.0
    CHANNELS 3 ZROTATION XROTATION YROTATION 
    JOINT Spine1
    {
      OFFSET 0.0 0.256574 0.00127663
      CHANNELS 3 ZROTATION XROTATION YROTATION 
      JOINT HEad
      {
        OFFSET 0.0 0.0873416 0.00011341
        CHANNELS 3 ZROTATION XROTATION YROTATION 
        End Site
        {
          OFFSET -0.0029 0.127742 0.0251395
        }
      }
      JOINT LeftShoulder1
      {
        OFFSET 0.0899 -0.00362252 -0.0022
        CHANNELS 3 ZROTATION XROTATION YROTATION 
        JOINT LeftArm
        {
          OFFSET 0.102827 -3.37999e-005 0.00322123
          CHANNELS 3 ZROTATION XROTATION YROTATION 
          JOINT LeftForeArm
          {
            OFFSET 0.262597 0.00099144 -0.0142434
            CHANNELS 3 ZROTATION XROTATION YROTATION 
            JOINT LeftHand
            {
              OFFSET 0.220902 0.00085362 0.0102216
              CHANNELS 3 ZROTATION XROTATION YROTATION 
              End Site
              {
                OFFSET 0.13419 -0.006 0.0150291
              }
            }
          }
        }
      }
      JOINT RightShoulder
      {
        OFFSET -0.0899 -0.00362252 -0.0022
        CHANNELS 3 ZROTATION XROTATION YROTATION 
        JOINT RightArm
        {
          OFFSET -0.102827 -3.38e-005 0.00322123
          CHANNELS 3 ZROTATION XROTATION YROTATION 
          JOINT RightForeArm
          {
            OFFSET -0.26364 0.00099144 -0.0142434
            CHANNELS 3 ZROTATION XROTATION YROTATION 
            JOINT RightHand
            {
              OFFSET -0.220324 0.00085362 0.0102216
              CHANNELS 3 ZROTATION XROTATION YROTATION 
              End Site
              {
                OFFSET -0.133284 -0.006 0.0150291
              }
            }
          }
        }
      }
    }
  }
  JOINT LeftUpLeg
  {
    OFFSET 0.089458 -0.0866707 0.00101652
    CHANNELS 3 ZROTATION XROTATION YROTATION 
    JOINT LeftLeg
    {
      OFFSET 0.0 -0.444227 0.013727
      CHANNELS 3 ZROTATION XROTATION YROTATION 
      JOINT LeftFoot
      {
        OFFSET -0.00253549 -0.420924 -0.0146059
        CHANNELS 3 ZROTATION XROTATION YROTATION 
        JOINT LeftToes
        {
          OFFSET -0.0004 -0.0441509 0.084991
          CHANNELS 3 ZROTATION XROTATION YROTATION 
          End Site
          {
            OFFSET 0.0008 -0.00047448 0.0977979
          }
        }
      }
    }
  }
}
MOTION
Frames: 9
Frame Time: 0.033333
-1.03638 1.11857 -1.08794 -0.827802012015 0.720089982165 90.0069966182 4.17425004757 -6.18051993229 2.68670997842 -1.25659002897 13.7283003025 -15.231099868 -0.764219994475 -19.6737998287 -0.334943005346 0.0462047989973 0.000530889001377 0.662642008108 -4.82442984193 6.22811012911 -1.19892999888 3.15030992211 5.46321986896 -2.12311008887 -3.52395008457 35.0993995786 1.63401998592 -32.1603999146 -3.92661001327 13.7582003093 -72.4987014356 -41.410398749 -36.7837003223 -175.091994996 58.8848981556 173.686000555 10.1392997097 8.82697960594 -7.91153959677 30.2541999852 -0.893905009689 -6.56233006822 48.4941006354 -10.3082999341 15.4420007416 2.9543900012 54.9945009515 14.4579002558 -2.05802991203 9.82435968704 1.22646996195 -2.71179000617 -11.33650039 -3.7396899338 2.38406002743 20.0833004053 9.10700967795 0.116791005444 -23.0535003734 0.143232001742 -1.3320499946e-009 8.75209994494e-006 -1.46422003163e-008 
-1.03537 1.11842 -1.08651 -0.780265976465 0.8151179772 90.0676008867 4.19305014326 -6.10658014632 2.72524996115 -1.30566002896 13.8283002483 -15.3308001393 -0.78423602392 -19.8285992361 -0.339200987963 0.0462047989973 0.000530889001377 0.662642008108 -4.81871980379 6.49284015049 -1.30264001813 3.06200005846 5.16477005742 -2.21392001521 -3.60901005885 35.1564009223 1.73485001321 -32.1195007418 -3.91487019875 13.7385003362 -72.839302479 -41.5820004217 -37.0860010798 -175.145994472 58.3797988363 174.082998471 10.0029998697 8.83491030934 -8.01063966521 30.3325012738 -0.886743022736 -6.53614995313 48.5903994725 -10.6482000293 15.466999234 3.22408002057 55.1907015505 14.1369001478 -2.13839007582 9.81941036121 1.2593799478 -2.73962003883 -11.2359002413 -3.79095989503 2.40741009633 20.1096000487 9.06666972694 -0.0218639007731 -23.1060996602 0.124327999131 -1.3320499946e-009 8.75209994494e-006 -1.46422003163e-008 
-1.03419 1.1185 -1.08514 -0.797361993319 0.958742021129 90.0946006245 4.15906995214 -6.04110979492 2.74051991625 -1.37805000232 13.8233995876 -15.3529999616 -0.771639981152 -19.9206992144 -0.339645990796 0.0462047989973 0.000530889001377 0.662642008108 -4.75975008493 6.49820014144 -1.35122998388 2.87913006772 5.11167003238 -2.21870989881 -3.54854004625 35.2654004962 1.65013997942 -31.9691990141 -3.84436002151 13.5945003117 -73.4124031617 -41.7361987724 -37.4173984433 -175.14700534 57.9383022385 174.508000162 10.1361996576 8.81191989259 -8.10398017663 30.4695012082 -0.901657968088 -6.5656999128 48.6181983424 -10.9926003653 15.4553998652 3.47480004331 55.2565001779 13.8426001031 -2.2859900369 9.81050037944 1.32718003404 -2.79579002046 -11.0850000182 -3.70931992454 2.42397992181 19.9165003556 8.97236018242 -0.0906096030244 -23.0599992984 0.114465005866 -1.3320499946e-009 8.75209994494e-006 -1.46422003163e-008 
-1.03317 1.1185 -1.08386 -0.900538991003 1.09645997914 90.0473971871 4.1181899893 -6.13794010612 2.75485989842 -1.423899995 13.9278997743 -15.3093994491 -0.795242980489 -20.0258994955 -0.344457005293 0.0462047989973 0.000530889001377 0.662642008108 -4.75935009197 6.4635501649 -1.32024002824 2.9033100046 5.0606899273 -2.18816998859 -3.57120005259 35.2022007558 1.55929995756 -31.9414001441 -3.8016098675 13.4901000165 -73.7262981654 -41.6476009736 -37.5894987198 -175.134997867 57.887301216 174.585003714 10.4528002699 8.77904960721 -8.0514500455 30.5218990044 -0.916434975636 -6.60175989652 48.3617008334 -10.5774998874 15.3324991489 3.19795006469 54.8575010171 14.2000998882 -2.24147001011 9.81082993607 1.30824002619 -2.83918007782 -11.0700999605 -3.63393000403 2.40242000281 19.8015004605 9.00505971308 -0.0497669994485 -23.0453007313 0.120076993445 -1.3320499946e-009 8.75209994494e-006 -1.46422003163e-008 
-1.03241 1.11819 -1.08247 -0.999434047048 1.19431001624 90.0159031849 4.11332988282 -6.34334993456 2.77289010372 -1.42482004283 14.2322000698 -15.3006004579 -0.835470019936 -20.2224996606 -0.350603001607 0.0462047989973 0.000530889001377 0.662642008108 -4.78290015734 6.57072992024 -1.30234002341 3.10081004709 4.96113010175 -2.21615007197 -3.6864200078 34.915599188 1.58540003137 -32.0443993968 -3.82525982438 13.5248998303 -73.826298965 -41.3693015008 -37.7760994879 -175.132006244 58.0608973039 174.433004684 10.696499712 8.75020998722 -8.05429994193 30.4306989035 -0.910829951648 -6.59402982993 48.0836984738 -9.77116958888 15.2461006709 2.76824002556 54.2791991454 14.7668997214 -2.19222007733 9.80733031789 1.29212995782 -2.85821005207 -11.2187001174 -3.7856899772 2.35774992531 19.9992993238 9.18434961747 -0.191987999791 -23.1580005602 0.100785997918 -1.3320499946e-009 8.75209994494e-006 -1.46422003163e-008 
-1.03152 1.11761 -1.08079 -1.01503003697 1.23732003761 90.0807011895 4.17347012535 -6.4862699354 2.78562990063 -1.39394001054 14.6268005887 -15.3790007843 -0.844871988772 -20.5083994264 -0.355820999328 0.0462047989973 0.000530889001377 0.662642008108 -4.69285008955 6.66844986358 -1.35576000013 3.2260099759 5.06728020608 -2.30275004046 -3.66850015274 34.5161014235 1.56972005147 -32.054299756 -3.84029008254 13.5616001442 -73.9211976133 -41.0263986837 -37.9626012183 -175.110996582 58.3530996268 174.204002102 10.6930999853 8.73679037304 -8.21774039235 30.2835014967 -0.898010967237 -6.57117985895 48.1503986862 -9.60864011493 15.3384004323 2.71226000856 54.1390983051 14.8461999252 -2.31791007221 9.80325013364 1.35762997786 -2.80206995252 -11.3904998656 -4.06459989818 2.27151003586 20.425899279 9.36250997933 -0.509056987049 -23.373600604 0.0568334971556 -1.3320499946e-009 8.75209994494e-006 -1.46422003163e-008 
-1.03027 1.11673 -1.07886 -0.994410016027 1.19676995156 90.1776967059 4.32845992422 -6.56988980697 2.81037994486 -1.33804003482 15.040100458 -15.4894995847 -0.851340017834 -20.8572991496 -0.361752991942 0.0462047989973 0.000530889001377 0.662642008108 -4.47125996986 6.6126198973 -1.40370995581 3.30736009024 5.35769003119 -2.36767995314 -3.52584994438 34.1641998321 1.39183001569 -31.9595991832 -3.80447000921 13.4927996487 -73.894901385 -40.6685001863 -37.8576007202 -175.083006467 58.7611965995 173.851004265 10.4832996259 8.75117987408 -8.34323999571 30.1703013565 -0.897785997881 -6.58001983128 48.3941988735 -10.1470997857 15.4894995847 2.90373006124 54.424801703 14.5656003862 -2.42000005596 9.80208985525 1.41014004531 -2.57361997502 -11.5992996023 -4.18701994 2.05639002629 21.0360998417 9.48000033211 -0.610845001733 -23.7118008358 0.042840800764 -1.3320499946e-009 8.75209994494e-006 -1.46422003163e-008 
-1.02898 1.11539 -1.07685 -0.984009985798 1.08769001624 90.2765978451 4.55585015518 -6.72744007301 2.84026991988 -1.2548899522 15.5881001955 -15.6065997629 -0.905836976643 -21.3194007205 -0.375296990262 0.0462047989973 0.000530889001377 0.662642008108 -4.23925978809 6.63059012501 -1.3999800322 3.5539000372 5.41706016989 -2.41097993739 -3.5138900697 33.8703002073 1.25695000128 -31.9605007681 -3.77753985397 13.4222002522 -73.6117012515 -40.3657998627 -37.4289004818 -175.089003373 59.1198020215 173.422000083 10.264399747 8.78012963088 -8.30950996027 30.1246005608 -0.904029004226 -6.6010901111 48.3681007207 -10.5550003905 15.5073998029 2.99376006535 54.6064983953 14.415300366 -2.36279999642 9.80319036948 1.40522999307 -2.21776007563 -12.0965996994 -4.4241700844 1.65552995917 22.2058004729 9.75180002616 -0.668993016819 -24.2087995508 0.0340523983599 -1.3320499946e-009 8.75209994494e-006 -1.46422003163e-008 
-1.02799 1.11362 -1.07492 -0.879715024884 1.00796004412 90.5499010346 4.75439991237 -6.90550993486 2.78087993095 -1.15570002408 16.3563991469 -15.8429004025 -0.984976030679 -21.9464001335 -0.395058008191 0.0462047989973 0.000530889001377 0.662642008108 -4.05077986417 7.0386298949 -1.45700005221 3.91946008587 5.08875005196 -2.54330994336 -3.64481988689 33.4437002521 1.33519995679 -32.0510007746 -3.78785984292 13.4256998703 -73.2066027318 -40.1656001879 -36.9501998437 -175.108004959 59.3768971721 173.043006547 10.1509998237 8.79965970303 -8.2350096719 30.1715000547 -0.908835963298 -6.61038984054 48.143100629 -10.7850001806 15.456999837 3.09391006193 54.7507998019 14.2886003569 -2.35449000408 9.79829995403 1.43179003743 -2.00485005915 -13.1071996116 -5.53218983854 1.12044002626 24.5258996207 10.4795003332 -1.36013004054 -24.5751999262 -0.0713959006931 -1.3320499946e-009 8.75209994494e-006 -1.46422003163e-008 
